<svg width="23" height="15" viewBox="0 0 23 15" fill="none" xmlns="http://www.w3.org/2000/svg">
<g filter="url(#filter0_d_46_478)">
<path fill-rule="evenodd" clip-rule="evenodd" d="M16.612 1.8012C17.1674 1.2736 17.6471 0.6672 18.033 0H16.8488C15.5833 1.8142 13.4815 3 11.1034 3C8.72522 3 6.62342 1.8142 5.35802 0H4.17374C4.55971 0.6673 5.03941 1.2737 5.59482 1.8013L4 3.3962L4.70712 4.1033L6.36442 2.4459C7.07522 2.9693 7.87562 3.378 8.73862 3.6447L8.12152 5.866L9.08512 6.1336L9.71132 3.8793C10.1633 3.9586 10.6285 4 11.1034 4C11.5782 4 12.0433 3.9586 12.4954 3.8793L13.1215 6.1336L14.0851 5.866L13.4681 3.6447C14.3311 3.3781 15.1316 2.9693 15.8424 2.4458L17.5 4.1033L18.2071 3.3962L16.612 1.8012Z" fill="black"/>
<path d="M17.5 3.3962V3.3962ZM17.5 3.3962L17.1465 3.74975L17.5 4.1033L17.5 3.3962ZM15.5727 2.02351C15.805 1.85086 16.027 1.66509 16.2375 1.46729L15.8957 1.79202L15.892 1.7883L15.5727 2.02351ZM11.3414 3.49629C12.7379 3.45275 14.0383 3.02736 15.1415 2.32117C14.5808 2.68019 13.9694 2.96652 13.3205 3.16698L12.8563 3.31038L12.8558 3.30845L12.409 3.38682C12.061 3.44786 11.7046 3.48498 11.3414 3.49629ZM5.96383 1.4622C6.17897 1.6647 6.40609 1.85464 6.644 2.03084L6.31478 1.78842L6.31111 1.79209L5.96383 1.4622ZM8.88625 3.16699C8.23032 2.96428 7.61278 2.67396 7.04715 2.30954C8.1587 3.02556 9.47176 3.45595 10.8823 3.4968C10.5132 3.48612 10.151 3.44881 9.79772 3.38682L9.35096 3.30844L9.35041 3.31043L8.88625 3.16699ZM13.4695 5.51803L13.4695 5.51804L12.9864 3.77852L13.4695 5.51803ZM8.73712 5.51804L9.22038 3.77854L8.73718 5.51805L8.73712 5.51804Z" stroke="black"/>
</g>
<defs>
<filter id="filter0_d_46_478" x="0" y="0" width="22.2072" height="14.1336" filterUnits="userSpaceOnUse" color-interpolation-filters="sRGB">
<feFlood flood-opacity="0" result="BackgroundImageFix"/>
<feColorMatrix in="SourceAlpha" type="matrix" values="0 0 0 0 0 0 0 0 0 0 0 0 0 0 0 0 0 0 127 0" result="hardAlpha"/>
<feOffset dy="4"/>
<feGaussianBlur stdDeviation="2"/>
<feComposite in2="hardAlpha" operator="out"/>
<feColorMatrix type="matrix" values="0 0 0 0 0 0 0 0 0 0 0 0 0 0 0 0 0 0 0.25 0"/>
<feBlend mode="normal" in2="BackgroundImageFix" result="effect1_dropShadow_46_478"/>
<feBlend mode="normal" in="SourceGraphic" in2="effect1_dropShadow_46_478" result="shape"/>
</filter>
</defs>
</svg>
