<svg width="139" height="25" viewBox="0 0 139 25" fill="none" xmlns="http://www.w3.org/2000/svg">
<path d="M23.72 2.09333C23.72 2.12889 23.7733 2.17333 23.88 2.22667C24.0044 2.26222 24.1289 2.29778 24.2533 2.33333C24.3956 2.36889 24.4756 2.39556 24.4933 2.41333C24.6 2.46667 24.6622 2.52 24.68 2.57333C24.8222 3.07111 24.8756 3.64889 24.84 4.30667C24.5022 8.11111 24.2089 11.4978 23.96 14.4667C23.7467 16.8133 23.6222 18.3956 23.5867 19.2133C23.5156 20.3333 23.4356 21.2667 23.3467 22.0133C23.2933 22.3689 23.0444 22.9111 22.6 23.64C22.4933 23.8178 22.2533 23.9067 21.88 23.9067C21.8089 23.9244 21.0267 23.9333 19.5333 23.9333C19.2667 23.9333 19.0533 23.8533 18.8933 23.6933C18.7333 23.5511 18.6444 23.3556 18.6267 23.1067L18.44 20.3067C18.44 20.2889 18.4222 20.0933 18.3867 19.72C18.3689 19.3289 18.36 19.0978 18.36 19.0267C18.4133 18.2444 18.52 17.4711 18.68 16.7067C18.7689 16.1911 18.7333 15.8533 18.5733 15.6933C18.4311 15.5333 18.1111 15.5067 17.6133 15.6133C16.8844 15.7556 16.2711 15.5867 15.7733 15.1067C15.2756 14.6267 15.0889 14.0222 15.2133 13.2933C15.3378 12.6 15.6222 12.0489 16.0667 11.64C16.5289 11.2133 17.1333 10.9733 17.88 10.92C18.2178 10.9022 18.5289 10.7778 18.8133 10.5467C19.0978 10.2978 19.2489 10.0133 19.2667 9.69333C19.2844 9.46222 19.3467 8.63556 19.4533 7.21333C19.56 5.77333 19.6222 4.87556 19.64 4.52C19.6756 4.23556 19.7644 3.77333 19.9067 3.13333C20.0489 2.54667 20.4222 2.26222 21.0267 2.28C21.7378 2.29778 22.3956 2.30667 23 2.30667C23.0178 2.30667 23.2578 2.23556 23.72 2.09333ZM0.493333 9.85333C0.351111 9.85333 0.253333 9.81778 0.2 9.74667C0.146667 9.65778 0.128889 9.52444 0.146667 9.34667C0.306667 6.76889 0.448889 5.37333 0.573333 5.16C0.768889 4.82222 1.05333 4.61778 1.42667 4.54667C3.63111 4.13778 5.31111 3.85333 6.46667 3.69333C8.22667 3.44444 9.86222 3.42667 11.3733 3.64C11.8889 3.64 12.2711 3.73778 12.52 3.93333C12.7689 4.11111 12.9733 4.42222 13.1333 4.86667C13.6667 6.37778 13.9511 8.01333 13.9867 9.77333C14.0222 11.5156 13.8889 13.32 13.5867 15.1867C13.5511 15.5422 13.4889 16.36 13.4 17.64C13.3289 18.9022 13.2044 19.8711 13.0267 20.5467C12.8489 21.2756 12.6178 21.7733 12.3333 22.04C12.1022 22.2711 11.4711 22.4133 10.44 22.4667C9.42667 22.5378 8.52 22.5467 7.72 22.4933C7.32889 22.4756 7.09778 22.3422 7.02667 22.0933C6.97333 21.8444 7.01778 21.5511 7.16 21.2133C7.21333 21.0356 7.24 20.9111 7.24 20.84C7.47111 19.6133 7.61333 18.1644 7.66667 16.4933C7.70222 15.2133 7.67556 13.3111 7.58667 10.7867C7.56889 10.2356 7.41778 9.87111 7.13333 9.69333C6.86667 9.51556 6.41333 9.49778 5.77333 9.64C4.79556 9.87111 3.03556 9.94222 0.493333 9.85333ZM49.7855 22.3867C49.7855 22.9911 49.661 23.48 49.4122 23.8533C49.1633 24.2444 48.8077 24.4311 48.3455 24.4133C48.2388 24.4133 48.0699 24.4133 47.8388 24.4133C47.6077 24.4311 47.421 24.4311 47.2788 24.4133C47.1366 24.4133 46.9588 24.4133 46.7455 24.4133C46.5499 24.4133 46.381 24.3956 46.2388 24.36C46.1144 24.3244 45.981 24.28 45.8388 24.2267C45.6966 24.1911 45.5722 24.1289 45.4655 24.04C45.3766 23.9511 45.3055 23.8533 45.2522 23.7467C44.7366 22.4667 44.461 21.48 44.4255 20.7867C44.3899 20.0044 44.3455 17.4178 44.2922 13.0267C44.2388 8.61778 44.1944 6.06667 44.1588 5.37333C44.1588 4.76889 44.0788 3.78222 43.9188 2.41333L43.7588 1.05333C44.7899 0.999999 45.3322 0.973333 45.3855 0.973333C45.7944 0.991111 46.3899 1.04444 47.1722 1.13333C47.9722 1.22222 48.4699 1.27556 48.6655 1.29333C49.181 1.34667 49.4477 1.63111 49.4655 2.14667C49.4833 2.73333 49.5455 4.04 49.6522 6.06667C49.7588 8.07556 49.8033 9.64 49.7855 10.76C49.7855 12.0578 49.7855 12.9556 49.7855 13.4533C49.7855 13.4533 49.7855 16.4133 49.7855 22.3333V22.3867ZM27.0655 4.14667C27.3499 3.95111 27.5455 3.85333 27.6522 3.85333C27.7766 3.83556 28.3188 3.82667 29.2788 3.82667V3.77333C30.1322 3.82667 30.9499 3.88 31.7322 3.93333C32.5322 3.98667 33.0833 4.02222 33.3855 4.04C33.6877 4.05778 34.0699 4.09333 34.5322 4.14667C35.0122 4.18222 35.581 4.23556 36.2388 4.30667C36.5944 4.34222 36.9055 4.55555 37.1722 4.94667C37.4566 5.32 37.5722 5.71111 37.5188 6.12C37.4833 6.56444 37.2788 7.42667 36.9055 8.70667C36.5144 9.79111 36.2566 10.5911 36.1322 11.1067C35.9899 11.5156 35.9633 11.8444 36.0522 12.0933C36.141 12.3244 36.3633 12.4844 36.7188 12.5733C37.2166 12.6978 38.2655 12.9378 39.8655 13.2933C40.381 13.4 40.5499 13.72 40.3722 14.2533C40.3544 14.3244 40.2122 14.7867 39.9455 15.64C39.6966 16.4756 39.5455 16.9733 39.4922 17.1333C39.101 18.0756 38.5055 18.52 37.7055 18.4667C37.6166 18.4667 37.5544 18.4756 37.5188 18.4933C37.3055 18.6 37.101 18.6533 36.9055 18.6533C36.6566 18.6533 36.4788 18.6356 36.3722 18.6C36.2655 18.5644 36.1233 18.4844 35.9455 18.36C35.821 18.2533 35.7322 18.1822 35.6788 18.1467C35.6255 18.0933 35.581 18.0578 35.5455 18.04C35.5277 18.0044 35.4833 17.9422 35.4122 17.8533C35.341 17.7644 35.261 17.6756 35.1722 17.5867C34.6566 17.0356 34.3544 16.7156 34.2655 16.6267C33.8388 16.2356 33.4122 16.2533 32.9855 16.68C32.5944 17.0711 32.2477 17.4978 31.9455 17.96C31.8566 18.0844 31.421 18.8044 30.6388 20.12C30.3722 20.5467 29.9544 20.8489 29.3855 21.0267C28.8166 21.2222 28.2122 21.2222 27.5722 21.0267C26.2922 20.6356 25.7499 19.4444 25.9455 17.4533C25.981 17.1156 26.1855 16.8133 26.5588 16.5467C26.8433 16.3333 27.3855 15.96 28.1855 15.4267C28.9855 14.8756 29.6788 14.3778 30.2655 13.9333C30.8522 13.4711 31.3144 13.0533 31.6522 12.68C31.8299 12.4489 31.9899 12.1911 32.1322 11.9067C32.2922 11.6044 32.3988 11.2667 32.4522 10.8933C32.5233 10.52 32.4433 10.2089 32.2122 9.96C31.9633 9.67556 31.581 9.55111 31.0655 9.58667C29.4655 9.71111 28.2033 9.37333 27.2788 8.57333C26.9588 8.28889 26.7899 7.95111 26.7722 7.56C26.7366 7.16889 26.7633 6.35111 26.8522 5.10667C26.8522 5.03556 26.8966 4.92889 26.9855 4.78667C27.0922 4.62667 27.1455 4.53778 27.1455 4.52C27.181 4.43111 27.1544 4.30667 27.0655 4.14667Z" fill="#FF802C"/>
<path d="M86.2937 22.3867C86.2937 22.9911 86.1693 23.48 85.9204 23.8533C85.6715 24.2444 85.3159 24.4311 84.8537 24.4133C84.747 24.4133 84.5782 24.4133 84.347 24.4133C84.1159 24.4311 83.9293 24.4311 83.787 24.4133C83.6448 24.4133 83.467 24.4133 83.2537 24.4133C83.0582 24.4133 82.8893 24.3956 82.747 24.36C82.6226 24.3244 82.4893 24.28 82.347 24.2267C82.2048 24.1911 82.0804 24.1289 81.9737 24.04C81.8848 23.9511 81.8137 23.8533 81.7604 23.7467C81.2448 22.4667 80.9693 21.48 80.9337 20.7867C80.8982 20.0044 80.8537 17.4178 80.8004 13.0267C80.747 8.61778 80.7026 6.06667 80.667 5.37333C80.667 4.76889 80.587 3.78222 80.427 2.41333L80.267 1.05333C81.2982 0.999999 81.8404 0.973333 81.8937 0.973333C82.3026 0.991111 82.8982 1.04444 83.6804 1.13333C84.4804 1.22222 84.9782 1.27556 85.1737 1.29333C85.6893 1.34667 85.9559 1.63111 85.9737 2.14667C85.9915 2.73333 86.0537 4.04 86.1604 6.06667C86.267 8.07556 86.3115 9.64 86.2937 10.76C86.2937 12.0578 86.2937 12.9556 86.2937 13.4533C86.2937 13.4533 86.2937 16.4133 86.2937 22.3333V22.3867ZM69.2004 18.1733C68.4893 18.2622 67.7248 18.3067 66.907 18.3067C66.3915 18.2889 65.8848 18.1733 65.387 17.96C64.907 17.7467 64.5604 17.4978 64.347 17.2133C64.1159 16.8578 64.027 16.36 64.0804 15.72C64.0804 15.5778 64.1515 15.48 64.2937 15.4267C64.3115 15.4267 64.5782 15.32 65.0937 15.1067C65.627 14.8933 66.027 14.7689 66.2937 14.7333C67.147 14.6622 68.4359 14.3067 70.1604 13.6667C70.6048 13.5067 70.9248 13.08 71.1204 12.3867C71.3337 11.6933 71.2893 11.1778 70.987 10.84C70.8626 10.6978 70.4626 10.5822 69.787 10.4933C69.5737 10.4578 68.7826 10.3511 67.4137 10.1733C66.0448 9.97778 65.227 9.86222 64.9604 9.82667C64.3382 9.70222 63.8937 9.48889 63.627 9.18667C63.3604 8.86667 63.2359 8.36 63.2537 7.66667V6.94667C63.2537 6.02222 63.3782 5.32889 63.627 4.86667C63.7159 4.68889 63.7693 4.6 63.787 4.6C63.9293 4.52889 64.2226 4.42222 64.667 4.28C65.5026 4.01333 66.2404 3.99556 66.8804 4.22667C67.7693 4.49333 69.227 4.78667 71.2537 5.10667C73.2982 5.42667 74.5604 5.64 75.0404 5.74667C75.5915 5.87111 76.027 6.12889 76.347 6.52C76.6848 6.89333 76.8626 7.37333 76.8804 7.96C77.0226 10.1644 77.0937 11.3289 77.0937 11.4533C77.0937 12.0578 76.9782 13.2933 76.747 15.16C76.2848 19.1244 75.9382 21.6756 75.707 22.8133C75.6182 23.3289 75.2804 23.5778 74.6937 23.56C73.2715 23.5422 72.107 23.5067 71.2004 23.4533C70.8626 23.4178 70.587 23.2844 70.3737 23.0533C70.1782 22.84 70.0804 22.5467 70.0804 22.1733V21.08V18.8933C70.0982 18.6089 70.0359 18.4222 69.8937 18.3333C69.7515 18.2267 69.5204 18.1733 69.2004 18.1733ZM93.6392 16.92C101.035 16.6889 107.115 16.5733 111.879 16.5733C112.27 16.5556 112.581 16.8133 112.813 17.3467C113.186 18.1289 113.266 18.9111 113.053 19.6933C112.981 19.96 112.768 20.1556 112.413 20.28C112.021 20.44 110.635 20.5556 108.253 20.6267C105.87 20.6978 104.626 20.7333 104.519 20.7333L104.066 20.8133C104.066 20.8311 104.004 21.2044 103.879 21.9333C103.755 22.68 103.675 23.1156 103.639 23.24C103.568 23.6311 103.337 23.8622 102.946 23.9333C102.555 24.0044 101.639 24.0578 100.199 24.0933C99.8436 24.1111 99.6303 23.8978 99.5592 23.4533V22.3333C99.5592 21.8711 99.5592 21.64 99.5592 21.64C99.5414 21.5689 99.5325 21.4978 99.5325 21.4267C99.5325 21.3733 99.5059 21.32 99.4525 21.2667C99.417 21.2133 99.3547 21.1689 99.2659 21.1333C99.1947 21.1156 99.1236 21.0978 99.0525 21.08C98.9992 21.0622 98.9192 21.0444 98.8125 21.0267C98.7059 21.0089 98.6347 21 98.5992 21C98.297 20.9467 96.9903 20.8844 94.6792 20.8133C92.3859 20.7422 90.9992 20.7067 90.5192 20.7067C90.217 20.7067 89.977 20.52 89.7992 20.1467C89.4614 19.3822 89.4347 18.4578 89.7192 17.3733C89.7547 17.1778 89.9947 17.0356 90.4392 16.9467C90.457 16.9289 91.5236 16.92 93.6392 16.92ZM100.999 1.34667C103.044 1.45333 104.128 1.51556 104.253 1.53333C107.31 1.81778 109.675 3.02667 111.346 5.16C111.577 5.46222 111.728 5.90667 111.799 6.49333C111.941 7.54222 111.746 8.77778 111.213 10.2C110.626 11.7289 109.47 12.6711 107.746 13.0267C106.501 13.2933 105.159 13.4267 103.719 13.4267C103.541 13.4267 102.777 13.4533 101.426 13.5067C100.093 13.5422 99.2747 13.5511 98.9725 13.5333C96.7681 13.4089 94.8836 13.0089 93.3192 12.3333C92.4836 11.9956 91.8347 11.4978 91.3725 10.84C90.9281 10.1644 90.7592 9.33778 90.8659 8.36C91.0259 6.83111 91.8081 5.35556 93.2125 3.93333C93.8525 3.29333 94.5903 2.79556 95.4259 2.44C96.2614 2.08444 97.2925 1.79111 98.5192 1.56C98.9814 1.47111 99.5681 1.40889 100.279 1.37333C100.617 1.37333 100.857 1.36444 100.999 1.34667ZM101.133 10.3067C102.608 10.1822 103.399 10.12 103.506 10.12C103.915 10.0667 104.359 9.87111 104.839 9.53333C105.337 9.19556 105.604 8.85778 105.639 8.52C105.764 7.64889 105.657 6.98222 105.319 6.52C104.981 6.04 104.421 5.70222 103.639 5.50667C101.826 5.06222 100.199 5.03556 98.7592 5.42667C98.0481 5.62222 97.6303 5.8 97.5059 5.96C97.1147 6.44 96.6881 7.15111 96.2259 8.09333C95.8881 8.80444 96.137 9.29333 96.9725 9.56C97.097 9.61333 97.2659 9.67556 97.4792 9.74667C97.6925 9.81778 97.8347 9.87111 97.9059 9.90667C97.9947 9.92444 98.1103 9.96 98.2525 10.0133C98.3947 10.0489 98.5192 10.0756 98.6259 10.0933C98.7503 10.1111 98.8925 10.1378 99.0525 10.1733C99.2125 10.1911 99.4081 10.2178 99.6392 10.2533C100.173 10.3244 100.67 10.3422 101.133 10.3067ZM138.798 22.3867C138.798 22.9911 138.674 23.48 138.425 23.8533C138.176 24.2444 137.82 24.4311 137.358 24.4133C137.251 24.4133 137.082 24.4133 136.851 24.4133C136.62 24.4311 136.434 24.4311 136.291 24.4133C136.149 24.4133 135.971 24.4133 135.758 24.4133C135.562 24.4133 135.394 24.3956 135.251 24.36C135.127 24.3244 134.994 24.28 134.851 24.2267C134.709 24.1911 134.585 24.1289 134.478 24.04C134.389 23.9511 134.318 23.8533 134.265 23.7467C133.749 22.4667 133.474 21.48 133.438 20.7867C133.402 20.0044 133.358 17.4178 133.305 13.0267C133.251 8.61778 133.207 6.06667 133.171 5.37333C133.171 4.76889 133.091 3.78222 132.931 2.41333L132.771 1.05333C133.802 0.999999 134.345 0.973333 134.398 0.973333C134.807 0.991111 135.402 1.04444 136.185 1.13333C136.985 1.22222 137.482 1.27556 137.678 1.29333C138.194 1.34667 138.46 1.63111 138.478 2.14667C138.496 2.73333 138.558 4.04 138.665 6.06667C138.771 8.07556 138.816 9.64 138.798 10.76C138.798 12.0578 138.798 12.9556 138.798 13.4533C138.798 13.4533 138.798 16.4133 138.798 22.3333V22.3867ZM115.758 9.85333C115.616 9.85333 115.518 9.81778 115.465 9.74667C115.411 9.65778 115.394 9.52444 115.411 9.34667C115.571 6.76889 115.714 5.37333 115.838 5.16C116.034 4.82222 116.318 4.61778 116.691 4.54667C118.896 4.13778 120.576 3.85333 121.731 3.69333C123.491 3.44444 125.127 3.42667 126.638 3.64C127.154 3.64 127.536 3.73778 127.785 3.93333C128.034 4.11111 128.238 4.42222 128.398 4.86667C128.931 6.37778 129.216 8.01333 129.251 9.77333C129.287 11.5156 129.154 13.32 128.851 15.1867C128.816 15.5422 128.754 16.36 128.665 17.64C128.594 18.9022 128.469 19.8711 128.291 20.5467C128.114 21.2756 127.882 21.7733 127.598 22.04C127.367 22.2711 126.736 22.4133 125.705 22.4667C124.691 22.5378 123.785 22.5467 122.985 22.4933C122.594 22.4756 122.362 22.3422 122.291 22.0933C122.238 21.8444 122.282 21.5511 122.425 21.2133C122.478 21.0356 122.505 20.9111 122.505 20.84C122.736 19.6133 122.878 18.1644 122.931 16.4933C122.967 15.2133 122.94 13.3111 122.851 10.7867C122.816 10.2356 122.665 9.87111 122.398 9.69333C122.131 9.51556 121.678 9.49778 121.038 9.64C120.06 9.87111 118.3 9.94222 115.758 9.85333Z" fill="black"/>
</svg>
