<svg width="106" height="85" viewBox="0 0 106 85" fill="none" xmlns="http://www.w3.org/2000/svg">
<path d="M50.08 2.64C50.08 2.69333 50.16 2.76 50.32 2.84C50.5067 2.89333 50.6933 2.94667 50.88 3C51.0933 3.05333 51.2133 3.09333 51.24 3.12C51.4 3.2 51.4933 3.28 51.52 3.36C51.7333 4.10667 51.8133 4.97333 51.76 5.96C51.2533 11.6667 50.8133 16.7467 50.44 21.2C50.12 24.72 49.9333 27.0933 49.88 28.32C49.7733 30 49.6533 31.4 49.52 32.52C49.44 33.0533 49.0667 33.8667 48.4 34.96C48.24 35.2267 47.88 35.36 47.32 35.36C47.2133 35.3867 46.04 35.4 43.8 35.4C43.4 35.4 43.08 35.28 42.84 35.04C42.6 34.8267 42.4667 34.5333 42.44 34.16L42.16 29.96C42.16 29.9333 42.1333 29.64 42.08 29.08C42.0533 28.4933 42.04 28.1467 42.04 28.04C42.12 26.8667 42.28 25.7067 42.52 24.56C42.6533 23.7867 42.6 23.28 42.36 23.04C42.1467 22.8 41.6667 22.76 40.92 22.92C39.8267 23.1333 38.9067 22.88 38.16 22.16C37.4133 21.44 37.1333 20.5333 37.32 19.44C37.5067 18.4 37.9333 17.5733 38.6 16.96C39.2933 16.32 40.2 15.96 41.32 15.88C41.8267 15.8533 42.2933 15.6667 42.72 15.32C43.1467 14.9467 43.3733 14.52 43.4 14.04C43.4267 13.6933 43.52 12.4533 43.68 10.32C43.84 8.16 43.9333 6.81333 43.96 6.28C44.0133 5.85333 44.1467 5.16 44.36 4.2C44.5733 3.32 45.1333 2.89333 46.04 2.92C47.1067 2.94667 48.0933 2.96 49 2.96C49.0267 2.96 49.3867 2.85333 50.08 2.64ZM15.24 14.28C15.0267 14.28 14.88 14.2267 14.8 14.12C14.72 13.9867 14.6933 13.7867 14.72 13.52C14.96 9.65333 15.1733 7.56 15.36 7.24C15.6533 6.73333 16.08 6.42667 16.64 6.32C19.9467 5.70667 22.4667 5.28 24.2 5.04C26.84 4.66667 29.2933 4.64 31.56 4.96C32.3333 4.96 32.9067 5.10667 33.28 5.4C33.6533 5.66667 33.96 6.13333 34.2 6.8C35 9.06667 35.4267 11.52 35.48 14.16C35.5333 16.7733 35.3333 19.48 34.88 22.28C34.8267 22.8133 34.7333 24.04 34.6 25.96C34.4933 27.8533 34.3067 29.3067 34.04 30.32C33.7733 31.4133 33.4267 32.16 33 32.56C32.6533 32.9067 31.7067 33.12 30.16 33.2C28.64 33.3067 27.28 33.32 26.08 33.24C25.4933 33.2133 25.1467 33.0133 25.04 32.64C24.96 32.2667 25.0267 31.8267 25.24 31.32C25.32 31.0533 25.36 30.8667 25.36 30.76C25.7067 28.92 25.92 26.7467 26 24.24C26.0533 22.32 26.0133 19.4667 25.88 15.68C25.8533 14.8533 25.6267 14.3067 25.2 14.04C24.8 13.7733 24.12 13.7467 23.16 13.96C21.6933 14.3067 19.0533 14.4133 15.24 14.28ZM89.3822 33.08C89.3822 33.9867 89.1956 34.72 88.8222 35.28C88.4489 35.8667 87.9156 36.1467 87.2222 36.12C87.0622 36.12 86.8089 36.12 86.4622 36.12C86.1156 36.1467 85.8356 36.1467 85.6222 36.12C85.4089 36.12 85.1422 36.12 84.8222 36.12C84.5289 36.12 84.2756 36.0933 84.0622 36.04C83.8756 35.9867 83.6756 35.92 83.4622 35.84C83.2489 35.7867 83.0622 35.6933 82.9022 35.56C82.7689 35.4267 82.6622 35.28 82.5822 35.12C81.8089 33.2 81.3956 31.72 81.3422 30.68C81.2889 29.5067 81.2222 25.6267 81.1422 19.04C81.0622 12.4267 80.9956 8.6 80.9422 7.56C80.9422 6.65333 80.8222 5.17333 80.5822 3.12L80.3422 1.08C81.8889 0.999999 82.7022 0.959999 82.7822 0.959999C83.3956 0.986666 84.2889 1.06667 85.4622 1.2C86.6622 1.33333 87.4089 1.41333 87.7022 1.44C88.4756 1.52 88.8756 1.94667 88.9022 2.72C88.9289 3.6 89.0222 5.56 89.1822 8.6C89.3422 11.6133 89.4089 13.96 89.3822 15.64C89.3822 17.5867 89.3822 18.9333 89.3822 19.68C89.3822 19.68 89.3822 24.12 89.3822 33V33.08ZM55.3022 5.72C55.7289 5.42667 56.0222 5.28 56.1822 5.28C56.3689 5.25333 57.1822 5.24 58.6222 5.24V5.16C59.9022 5.24 61.1289 5.32 62.3022 5.4C63.5022 5.48 64.3289 5.53333 64.7822 5.56C65.2356 5.58667 65.8089 5.64 66.5022 5.72C67.2222 5.77333 68.0756 5.85333 69.0622 5.96C69.5956 6.01333 70.0622 6.33333 70.4622 6.92C70.8889 7.48 71.0622 8.06667 70.9822 8.68C70.9289 9.34667 70.6222 10.64 70.0622 12.56C69.4756 14.1867 69.0889 15.3867 68.9022 16.16C68.6889 16.7733 68.6489 17.2667 68.7822 17.64C68.9156 17.9867 69.2489 18.2267 69.7822 18.36C70.5289 18.5467 72.1022 18.9067 74.5022 19.44C75.2756 19.6 75.5289 20.08 75.2622 20.88C75.2356 20.9867 75.0222 21.68 74.6222 22.96C74.2489 24.2133 74.0222 24.96 73.9422 25.2C73.3556 26.6133 72.4622 27.28 71.2622 27.2C71.1289 27.2 71.0356 27.2133 70.9822 27.24C70.6622 27.4 70.3556 27.48 70.0622 27.48C69.6889 27.48 69.4222 27.4533 69.2622 27.4C69.1022 27.3467 68.8889 27.2267 68.6222 27.04C68.4356 26.88 68.3022 26.7733 68.2222 26.72C68.1422 26.64 68.0756 26.5867 68.0222 26.56C67.9956 26.5067 67.9289 26.4133 67.8222 26.28C67.7156 26.1467 67.5956 26.0133 67.4622 25.88C66.6889 25.0533 66.2356 24.5733 66.1022 24.44C65.4622 23.8533 64.8222 23.88 64.1822 24.52C63.5956 25.1067 63.0756 25.7467 62.6222 26.44C62.4889 26.6267 61.8356 27.7067 60.6622 29.68C60.2622 30.32 59.6356 30.7733 58.7822 31.04C57.9289 31.3333 57.0222 31.3333 56.0622 31.04C54.1422 30.4533 53.3289 28.6667 53.6222 25.68C53.6756 25.1733 53.9822 24.72 54.5422 24.32C54.9689 24 55.7822 23.44 56.9822 22.64C58.1822 21.8133 59.2222 21.0667 60.1022 20.4C60.9822 19.7067 61.6756 19.08 62.1822 18.52C62.4489 18.1733 62.6889 17.7867 62.9022 17.36C63.1422 16.9067 63.3022 16.4 63.3822 15.84C63.4889 15.28 63.3689 14.8133 63.0222 14.44C62.6489 14.0133 62.0756 13.8267 61.3022 13.88C58.9022 14.0667 57.0089 13.56 55.6222 12.36C55.1422 11.9333 54.8889 11.4267 54.8622 10.84C54.8089 10.2533 54.8489 9.02667 54.9822 7.16C54.9822 7.05333 55.0489 6.89333 55.1822 6.68C55.3422 6.44 55.4222 6.30667 55.4222 6.28C55.4756 6.14667 55.4356 5.96 55.3022 5.72Z" fill="#FF802C"/>
<path d="M32.7111 81.8489C32.7111 82.6548 32.5452 83.3067 32.2133 83.8044C31.8815 84.3259 31.4074 84.5748 30.7911 84.5511C30.6489 84.5511 30.4237 84.5511 30.1156 84.5511C29.8074 84.5748 29.5585 84.5748 29.3689 84.5511C29.1793 84.5511 28.9422 84.5511 28.6578 84.5511C28.397 84.5511 28.1719 84.5274 27.9822 84.48C27.8163 84.4326 27.6385 84.3733 27.4489 84.3022C27.2593 84.2548 27.0933 84.1719 26.9511 84.0533C26.8326 83.9348 26.7378 83.8044 26.6667 83.6622C25.9793 81.9556 25.6119 80.64 25.5644 79.7156C25.517 78.6726 25.4578 75.2237 25.3867 69.3689C25.3156 63.4904 25.2563 60.0889 25.2089 59.1644C25.2089 58.3585 25.1022 57.043 24.8889 55.2178L24.6756 53.4044C26.0504 53.3333 26.7733 53.2978 26.8444 53.2978C27.3896 53.3215 28.1837 53.3926 29.2267 53.5111C30.2933 53.6296 30.957 53.7007 31.2178 53.7244C31.9052 53.7956 32.2607 54.1748 32.2844 54.8622C32.3081 55.6444 32.3911 57.3867 32.5333 60.0889C32.6756 62.7674 32.7348 64.8533 32.7111 66.3467C32.7111 68.077 32.7111 69.2741 32.7111 69.9378C32.7111 69.9378 32.7111 73.8844 32.7111 81.7778V81.8489ZM9.92 76.2311C8.97185 76.3496 7.95259 76.4089 6.86222 76.4089C6.17481 76.3852 5.49926 76.2311 4.83556 75.9467C4.19556 75.6622 3.73333 75.3304 3.44889 74.9511C3.14074 74.477 3.02222 73.8133 3.09333 72.96C3.09333 72.7704 3.18815 72.64 3.37778 72.5689C3.40148 72.5689 3.75704 72.4267 4.44444 72.1422C5.15556 71.8578 5.68889 71.6919 6.04444 71.6444C7.18222 71.5496 8.90074 71.0756 11.2 70.2222C11.7926 70.0089 12.2193 69.44 12.48 68.5156C12.7644 67.5911 12.7052 66.9037 12.3022 66.4533C12.1363 66.2637 11.603 66.1096 10.7022 65.9911C10.4178 65.9437 9.36296 65.8015 7.53778 65.5644C5.71259 65.3037 4.62222 65.1496 4.26667 65.1022C3.43704 64.9363 2.84444 64.6519 2.48889 64.2489C2.13333 63.8222 1.96741 63.1467 1.99111 62.2222V61.2622C1.99111 60.0296 2.15704 59.1052 2.48889 58.4889C2.60741 58.2519 2.67852 58.1333 2.70222 58.1333C2.89185 58.0385 3.28296 57.8963 3.87556 57.7067C4.98963 57.3511 5.97333 57.3274 6.82667 57.6356C8.01185 57.9911 9.95556 58.3822 12.6578 58.8089C15.3837 59.2356 17.0667 59.52 17.7067 59.6622C18.4415 59.8281 19.0222 60.1719 19.4489 60.6933C19.8993 61.1911 20.1363 61.8311 20.16 62.6133C20.3496 65.5526 20.4444 67.1052 20.4444 67.2711C20.4444 68.077 20.2904 69.7244 19.9822 72.2133C19.3659 77.4993 18.9037 80.9007 18.5956 82.4178C18.477 83.1052 18.0267 83.437 17.2444 83.4133C15.3481 83.3896 13.7956 83.3422 12.5867 83.2711C12.1363 83.2237 11.7689 83.0459 11.4844 82.7378C11.2237 82.4533 11.0933 82.0622 11.0933 81.5644V80.1067V77.1911C11.117 76.8119 11.0341 76.563 10.8444 76.4444C10.6548 76.3022 10.3467 76.2311 9.92 76.2311ZM42.6411 74.56C52.5018 74.2519 60.6085 74.0978 66.9611 74.0978C67.4826 74.0741 67.8974 74.4178 68.2055 75.1289C68.7033 76.1719 68.81 77.2148 68.5255 78.2578C68.4307 78.6133 68.1463 78.8741 67.6722 79.04C67.1507 79.2533 65.3018 79.4074 62.1255 79.5022C58.9492 79.597 57.29 79.6444 57.1478 79.6444L56.5433 79.7511C56.5433 79.7748 56.4604 80.2726 56.2944 81.2444C56.1285 82.24 56.0218 82.8207 55.9744 82.9867C55.8796 83.5081 55.5715 83.8163 55.05 83.9111C54.5285 84.0059 53.3078 84.077 51.3878 84.1244C50.9137 84.1481 50.6292 83.8637 50.5344 83.2711V81.7778C50.5344 81.1615 50.5344 80.8533 50.5344 80.8533C50.5107 80.7585 50.4989 80.6637 50.4989 80.5689C50.4989 80.4978 50.4633 80.4267 50.3922 80.3556C50.3448 80.2844 50.2618 80.2252 50.1433 80.1778C50.0485 80.1541 49.9537 80.1304 49.8589 80.1067C49.7878 80.083 49.6811 80.0593 49.5389 80.0356C49.3967 80.0119 49.3018 80 49.2544 80C48.8515 79.9289 47.1092 79.8459 44.0278 79.7511C40.97 79.6563 39.1211 79.6089 38.4811 79.6089C38.0781 79.6089 37.7581 79.36 37.5211 78.8622C37.0707 77.843 37.0352 76.6104 37.4144 75.1644C37.4618 74.9037 37.7818 74.7141 38.3744 74.5956C38.3981 74.5719 39.8204 74.56 42.6411 74.56ZM52.4544 53.7956C55.1804 53.9378 56.6263 54.0207 56.7922 54.0444C60.8692 54.4237 64.0218 56.0356 66.25 58.88C66.5581 59.283 66.7596 59.8756 66.8544 60.6578C67.0441 62.0563 66.7833 63.7037 66.0722 65.6C65.29 67.6385 63.7492 68.8948 61.45 69.3689C59.7907 69.7244 58.0011 69.9022 56.0811 69.9022C55.8441 69.9022 54.8248 69.9378 53.0233 70.0089C51.2455 70.0563 50.1552 70.0681 49.7522 70.0444C46.8129 69.8785 44.3004 69.3452 42.2144 68.4444C41.1004 67.9941 40.2352 67.3304 39.6189 66.4533C39.0263 65.5526 38.8011 64.4504 38.9433 63.1467C39.1567 61.1081 40.1996 59.1407 42.0722 57.2444C42.9255 56.3911 43.9092 55.7274 45.0233 55.2533C46.1374 54.7793 47.5122 54.3881 49.1478 54.08C49.7641 53.9615 50.5463 53.8785 51.4944 53.8311C51.9448 53.8311 52.2648 53.8193 52.4544 53.7956ZM52.6322 65.7422C54.5996 65.5763 55.6544 65.4933 55.7967 65.4933C56.3418 65.4222 56.9344 65.1615 57.5744 64.7111C58.2381 64.2607 58.5937 63.8104 58.6411 63.36C58.807 62.1985 58.6648 61.3096 58.2144 60.6933C57.7641 60.0533 57.0174 59.603 55.9744 59.3422C53.5567 58.7496 51.3878 58.7141 49.4678 59.2356C48.5196 59.4963 47.9626 59.7333 47.7967 59.9467C47.2752 60.5867 46.7063 61.5348 46.09 62.7911C45.6396 63.7393 45.9715 64.3911 47.0855 64.7467C47.2515 64.8178 47.4767 64.9007 47.7611 64.9956C48.0455 65.0904 48.2352 65.1615 48.33 65.2089C48.4485 65.2326 48.6026 65.28 48.7922 65.3511C48.9818 65.3985 49.1478 65.4341 49.29 65.4578C49.4559 65.4815 49.6455 65.517 49.8589 65.5644C50.0722 65.5881 50.3329 65.6237 50.6411 65.6711C51.3522 65.7659 52.0159 65.7896 52.6322 65.7422ZM102.989 81.8489C102.989 82.6548 102.823 83.3067 102.491 83.8044C102.159 84.3259 101.685 84.5748 101.069 84.5511C100.927 84.5511 100.701 84.5511 100.393 84.5511C100.085 84.5748 99.8363 84.5748 99.6466 84.5511C99.457 84.5511 99.22 84.5511 98.9355 84.5511C98.6748 84.5511 98.4496 84.5274 98.26 84.48C98.094 84.4326 97.9163 84.3733 97.7266 84.3022C97.537 84.2548 97.3711 84.1719 97.2289 84.0533C97.1103 83.9348 97.0155 83.8044 96.9444 83.6622C96.257 81.9556 95.8896 80.64 95.8422 79.7156C95.7948 78.6726 95.7355 75.2237 95.6644 69.3689C95.5933 63.4904 95.534 60.0889 95.4866 59.1644C95.4866 58.3585 95.38 57.043 95.1666 55.2178L94.9533 53.4044C96.3281 53.3333 97.0511 53.2978 97.1222 53.2978C97.6674 53.3215 98.4615 53.3926 99.5044 53.5111C100.571 53.6296 101.235 53.7007 101.496 53.7244C102.183 53.7956 102.538 54.1748 102.562 54.8622C102.586 55.6444 102.669 57.3867 102.811 60.0889C102.953 62.7674 103.013 64.8533 102.989 66.3467C102.989 68.077 102.989 69.2741 102.989 69.9378C102.989 69.9378 102.989 73.8844 102.989 81.7778V81.8489ZM72.2689 65.1378C72.0792 65.1378 71.9489 65.0904 71.8777 64.9956C71.8066 64.877 71.7829 64.6993 71.8066 64.4622C72.02 61.0252 72.2096 59.1644 72.3755 58.88C72.6363 58.4296 73.0155 58.157 73.5133 58.0622C76.4526 57.517 78.6926 57.1378 80.2333 56.9244C82.58 56.5926 84.7607 56.5689 86.7755 56.8533C87.4629 56.8533 87.9726 56.9837 88.3044 57.2444C88.6363 57.4815 88.9089 57.8963 89.1222 58.4889C89.8333 60.5037 90.2126 62.6844 90.26 65.0311C90.3074 67.3541 90.1296 69.76 89.7266 72.2489C89.6792 72.723 89.5963 73.8133 89.4777 75.52C89.3829 77.203 89.217 78.4948 88.98 79.3956C88.7429 80.3674 88.4348 81.0311 88.0555 81.3867C87.7474 81.6948 86.9059 81.8844 85.5311 81.9556C84.18 82.0504 82.9711 82.0622 81.9044 81.9911C81.3829 81.9674 81.0748 81.7896 80.98 81.4578C80.9089 81.1259 80.9681 80.7348 81.1577 80.2844C81.2289 80.0474 81.2644 79.8815 81.2644 79.7867C81.5726 78.1511 81.7622 76.2193 81.8333 73.9911C81.8807 72.2844 81.8452 69.7481 81.7266 66.3822C81.6792 65.6474 81.4777 65.1615 81.1222 64.9244C80.7666 64.6874 80.1622 64.6637 79.3089 64.8533C78.0052 65.1615 75.6585 65.2563 72.2689 65.1378Z" fill="black"/>
</svg>
