<svg width="45" height="45" viewBox="0 0 45 45" fill="none" xmlns="http://www.w3.org/2000/svg">
<path d="M22.125 33.0941C22.5544 33.0941 22.9141 32.949 23.2042 32.659C23.4927 32.3689 23.6369 32.0091 23.6369 31.5797C23.6369 31.152 23.4918 30.7931 23.2017 30.503C22.9117 30.2129 22.5527 30.0671 22.125 30.0654C21.6972 30.0638 21.3383 30.2088 21.0483 30.5005C20.7582 30.7923 20.6131 31.1512 20.6131 31.5773C20.6131 32.0034 20.7582 32.3631 21.0483 32.6565C21.3383 32.9499 21.6972 33.0974 22.125 33.0941ZM20.8958 24.9595H23.3542V10.2095H20.8958V24.9595ZM22.1324 44.25C19.0742 44.25 16.198 43.6698 13.5036 42.5095C10.8109 41.3475 8.46814 39.7709 6.47525 37.7797C4.48236 35.7884 2.90493 33.4481 1.74296 30.7587C0.580986 28.0693 0 25.1938 0 22.1324C0 19.0709 0.580986 16.1947 1.74296 13.5036C2.90329 10.8109 4.47744 8.46814 6.46542 6.47525C8.45339 4.48236 10.7945 2.90493 13.4889 1.74296C16.1832 0.580986 19.0595 0 22.1176 0C25.1758 0 28.052 0.580986 30.7464 1.74296C33.4391 2.90329 35.7819 4.47826 37.7747 6.46788C39.7676 8.45749 41.3451 10.7986 42.507 13.4913C43.669 16.184 44.25 19.0595 44.25 22.1176C44.25 25.1758 43.6698 28.052 42.5095 30.7464C41.3492 33.4407 39.7726 35.7835 37.7797 37.7747C35.7868 39.766 33.4464 41.3434 30.7587 42.507C28.0709 43.6707 25.1955 44.2516 22.1324 44.25ZM22.125 41.7917C27.6153 41.7917 32.2656 39.8865 36.076 36.076C39.8865 32.2656 41.7917 27.6153 41.7917 22.125C41.7917 16.6347 39.8865 11.9844 36.076 8.17396C32.2656 4.36354 27.6153 2.45833 22.125 2.45833C16.6347 2.45833 11.9844 4.36354 8.17396 8.17396C4.36354 11.9844 2.45833 16.6347 2.45833 22.125C2.45833 27.6153 4.36354 32.2656 8.17396 36.076C11.9844 39.8865 16.6347 41.7917 22.125 41.7917Z" fill="#CDCDCD"/>
</svg>
