<svg width="25" height="25" viewBox="0 0 25 25" fill="none" xmlns="http://www.w3.org/2000/svg">
<path d="M12.5 0C5.60757 0 0 5.60757 0 12.5C0 19.3924 5.60757 25 12.5 25C19.3924 25 25 19.3924 25 12.5C25 5.60757 19.3924 0 12.5 0ZM9.48197 7.02043C10.2434 6.21334 11.3149 5.76923 12.5 5.76923C13.6851 5.76923 14.747 6.21635 15.5114 7.02764C16.2861 7.84976 16.6629 8.95433 16.5739 10.1418C16.396 12.5 14.5691 14.4231 12.5 14.4231C10.4309 14.4231 8.60036 12.5 8.42608 10.1412C8.33774 8.94411 8.71394 7.83594 9.48197 7.02043ZM12.5 23.0769C11.088 23.0778 9.69024 22.7952 8.38954 22.2458C7.08883 21.6964 5.91168 20.8914 4.92788 19.8786C5.49131 19.0751 6.20922 18.3919 7.03966 17.869C8.57151 16.887 10.5102 16.3462 12.5 16.3462C14.4898 16.3462 16.4285 16.887 17.9585 17.869C18.7896 18.3917 19.5082 19.0749 20.0721 19.8786C19.0884 20.8916 17.9113 21.6966 16.6106 22.246C15.3098 22.7954 13.912 23.078 12.5 23.0769Z" fill="#FF802C"/>
</svg>
