<svg width="25" height="25" viewBox="0 0 25 25" fill="none" xmlns="http://www.w3.org/2000/svg">
<g clip-path="url(#clip0_423_1081)">
<rect width="25" height="25" fill="white"/>
<path fill-rule="evenodd" clip-rule="evenodd" d="M18.7406 6.26041L5.62393 11.0031L9.99372 13.5323L13.8468 9.67812C14.0423 9.4828 14.3074 9.37312 14.5837 9.37322C14.86 9.37332 15.125 9.48318 15.3203 9.67864C15.5156 9.8741 15.6253 10.1391 15.6252 10.4155C15.6251 10.6918 15.5152 10.9568 15.3198 11.1521L11.4656 15.0062L13.9968 19.375L18.7406 6.26041ZM19.0771 3.92291C20.3218 3.47187 21.5281 4.67812 21.0771 5.92291L15.575 21.1364C15.1229 22.3844 13.4187 22.5364 12.7531 21.3875L9.40206 15.5979L3.61247 12.2469C2.46351 11.5812 2.6156 9.87708 3.86351 9.42499L19.0771 3.92291Z" fill="#FF802C"/>
</g>
<defs>
<clipPath id="clip0_423_1081">
<rect width="25" height="25" fill="white"/>
</clipPath>
</defs>
</svg>
