<svg width="25" height="25" viewBox="0 0 25 25" fill="none" xmlns="http://www.w3.org/2000/svg">
<path d="M2.60413 2.8645C2.60413 2.6573 2.52182 2.45859 2.3753 2.31207C2.22879 2.16556 2.03008 2.08325 1.82288 2.08325C1.61568 2.08325 1.41696 2.16556 1.27045 2.31207C1.12394 2.45859 1.04163 2.6573 1.04163 2.8645V22.1353C1.04163 22.5666 1.39163 22.9166 1.82288 22.9166H20.8333C21.0405 22.9166 21.2392 22.8343 21.3857 22.6878C21.5322 22.5413 21.6145 22.3425 21.6145 22.1353C21.6145 21.9281 21.5322 21.7294 21.3857 21.5829C21.2392 21.4364 21.0405 21.3541 20.8333 21.3541H2.60413V2.8645Z" fill="black"/>
<path d="M23.2083 8.10413C23.3463 7.95603 23.4214 7.76015 23.4178 7.55775C23.4143 7.35535 23.3323 7.16224 23.1891 7.01911C23.046 6.87597 22.8529 6.79398 22.6505 6.7904C22.4481 6.78683 22.2522 6.86196 22.1041 6.99996L16.1458 12.9583L12.2708 9.0833C12.1243 8.93699 11.9257 8.85482 11.7187 8.85482C11.5117 8.85482 11.3131 8.93699 11.1666 9.0833L4.91662 15.3333C4.83987 15.4048 4.7783 15.4911 4.7356 15.5869C4.6929 15.6827 4.66994 15.7862 4.66809 15.8911C4.66624 15.996 4.68554 16.1002 4.72483 16.1975C4.76412 16.2947 4.82261 16.3831 4.89679 16.4573C4.97098 16.5315 5.05935 16.59 5.15663 16.6293C5.2539 16.6685 5.3581 16.6878 5.463 16.686C5.5679 16.6841 5.67135 16.6612 5.76718 16.6185C5.86302 16.5758 5.94927 16.5142 6.02079 16.4375L11.7187 10.7395L15.5937 14.6145C15.7402 14.7608 15.9388 14.843 16.1458 14.843C16.3528 14.843 16.5514 14.7608 16.6979 14.6145L23.2083 8.10413Z" fill="black"/>
</svg>
