<svg width="25" height="25" viewBox="0 0 25 25" fill="none" xmlns="http://www.w3.org/2000/svg">
<path d="M12.375 15.1133H12.4297C13.6016 15.1445 14.5391 16.0977 14.5391 17.2695C14.5391 18.2695 13.8594 19.1055 12.9375 19.3555V20.2305C12.9375 20.543 12.6875 20.793 12.375 20.793C12.0625 20.793 11.8125 20.543 11.8125 20.2305V19.3555C11.3535 19.2319 10.948 18.9607 10.6585 18.5837C10.369 18.2067 10.2118 17.7448 10.2109 17.2695C10.2109 16.957 10.4609 16.707 10.7734 16.707C11.0859 16.707 11.3359 16.957 11.3359 17.2695C11.3359 17.8477 11.7969 18.3086 12.3672 18.3086C12.9375 18.3086 13.4063 17.8398 13.4063 17.2695C13.4063 16.6992 12.9375 16.2305 12.3672 16.2305H12.3125C11.7505 16.2152 11.2166 15.9815 10.8241 15.5788C10.4317 15.1762 10.2117 14.6364 10.2109 14.0742C10.2109 13.0742 10.8906 12.2383 11.8125 11.9883V11.1133C11.8125 10.8008 12.0625 10.5508 12.375 10.5508C12.6875 10.5508 12.9375 10.8008 12.9375 11.1133V11.9883C13.8594 12.2383 14.5391 13.0742 14.5391 14.0742C14.5391 14.3867 14.2891 14.6367 13.9766 14.6367C13.6641 14.6367 13.4141 14.3867 13.4141 14.0742C13.4141 13.5039 12.9453 13.0352 12.375 13.0352C11.8047 13.0352 11.3359 13.5039 11.3359 14.0742C11.3359 14.6445 11.8047 15.1133 12.375 15.1133Z" fill="black"/>
<path d="M8.22812 3.9844L10.4047 6.53127L10.1695 6.79377C5.68984 7.79846 2.34375 11.7992 2.34375 16.5821C2.34375 20.7867 5.75625 24.1992 9.96094 24.1992H14.7812C18.9859 24.1992 22.3984 20.7875 22.3984 16.5828C22.4062 11.7992 19.0602 7.79846 14.5805 6.79377C14.5989 6.62868 14.569 6.46179 14.4945 6.3133L16.3461 4.19377L16.4656 4.0094C16.6052 3.70497 16.6409 3.36311 16.5672 3.03641C16.4936 2.70971 16.3146 2.41625 16.0579 2.20117C15.8012 1.98609 15.481 1.8613 15.1464 1.84599C14.8119 1.83068 14.4815 1.9257 14.2063 2.11643L13.5477 1.33518C13.3999 1.16985 13.219 1.03751 13.0167 0.94678C12.8144 0.856049 12.5952 0.808964 12.3735 0.808596C12.1518 0.808227 11.9325 0.854583 11.7299 0.944641C11.5273 1.0347 11.3459 1.16644 11.1977 1.33127L10.5078 2.10159C10.2332 1.90689 9.90217 1.80808 9.5658 1.82045C9.22943 1.83282 8.90651 1.95568 8.64698 2.17003C8.38746 2.38437 8.20579 2.67826 8.13007 3.00623C8.05436 3.3342 8.08882 3.67798 8.22812 3.9844ZM11.1961 5.06643L9.87109 3.53518C10.179 3.68324 10.5272 3.72521 10.8614 3.65454C11.1957 3.58388 11.4971 3.40456 11.7188 3.14455L12.3438 2.33362L13.0375 3.15549C13.2538 3.40704 13.5456 3.58196 13.8694 3.65418C14.1932 3.7264 14.5317 3.69206 14.8344 3.55627L13.5156 5.06643H11.1961ZM3.90625 16.5821C3.90625 11.9039 7.69688 8.1133 12.375 8.1133C17.0531 8.1133 20.8438 11.9039 20.8359 16.5805V16.5821C20.8353 18.1877 20.1972 19.7273 19.0619 20.8627C17.9265 21.998 16.3869 22.6361 14.7812 22.6367H9.96094C8.35533 22.6361 6.81565 21.998 5.68031 20.8627C4.54497 19.7273 3.90687 18.1877 3.90625 16.5821Z" fill="black"/>
</svg>
